<svg id="Layer_1" data-name="Layer 1" xmlns="http://www.w3.org/2000/svg" viewBox="0 0 441 440"><defs><style>.cls-1{fill:#fbb03b}.cls-2{fill:#fff}.cls-3{fill:#26c6cb}.cls-4{fill:#fafcfb}.cls-5{fill:#1d9598}.cls-6{fill:#136366}.cls-7{fill:#246f76}.cls-8{fill:#ff0}</style></defs><title>logoArtboard 1</title><circle class="cls-1" cx="220.48" cy="220" r="220"/><path class="cls-2" d="M63.63 221.4h-5.4v19.3l-2.3 2.3h-16.4l-2.3-2.3v-65.4l2.3-2.3h28c17.21 0 26.21 9.3 26.21 23.3 0 16-11.8 25.1-30.11 25.1zm1.3-33.1h-6.7v17h4.1c5.2 0 10.4-1.9 10.4-8.3 0-5.6-2.3-8.7-7.8-8.7zM136.73 208.2l-3.2.5c-.9-.8-4.6-4.1-6.6-4.1-2.3 0-4 4.2-5 6.9v29.7l-1.8 1.8h-16.4l-1.8-1.8v-34.1c-.9-4.4-2.4-9.9-3.3-12.8l1.8-2.7 14.7-2.9 2.9 1.8a20.6 20.6 0 0 1 1.7 7.8l-.1 1.5c1.6-3.7 5.2-10.8 13-10.8 2.9 0 8.3 1.6 9.6 2l1.4 2.9zM189.33 215.9l-2.3 2.3h-24.6v.4c0 7 1.7 11.2 6.5 11.2 3.5 0 13.2-1.5 16.3-2.6l2.7 1.9v10.4l-2.3 2.3a73.62 73.62 0 0 1-18.9 2.7c-13.6 0-23.9-7.3-23.9-25.8 0-16.8 5.6-29.5 24.9-29.5 13 0 21.9 7.2 21.9 20.5zm-16.4-8.9c0-3-1.4-5.1-4.7-5.1s-5.2 2.5-5.6 6h10.3zM224.13 244.5a27 27 0 0 1-5.2-.5v18l-2.3 2.3h-15.4l-2.3-2.3v-54.9c-.7-3.7-2.2-9.3-3.3-12.8l1.8-2.7 14.7-2.9 2.9 1.8a44.12 44.12 0 0 1 1.8 7.4c2.7-3.4 9.4-8.7 16.2-8.7 12.3 0 18 13.6 18 25.7-.03 16.6-7.5 29.6-26.9 29.6zm2.3-40.6c-3 0-5.8 2.2-7.5 4.3v20.9a16.83 16.83 0 0 0 5.3.7c4.7 0 6.6-2.9 6.6-13.4 0-7.5-1.4-12.5-4.4-12.5zM307 242.1l-14.7 2.9-2.9-1.8a55.5 55.5 0 0 1-1.7-8.1c-2.4 3.4-10.6 9.4-18.7 9.4-6.1 0-12.4-6.8-12.4-16.9 0-11.7 7.6-14.9 23.9-14.9h5v-3.1c0-4.2-1.8-5.8-6.8-5.8a76.56 76.56 0 0 0-14.7 1.6l-2.5-2.2v-10l2.3-2.3a109.15 109.15 0 0 1 19.1-1.7c13.5 0 22.6 3.5 22.6 18.1v19.3c.8 3.8 2.4 9.8 3.3 12.8zm-21.5-19.4h-6.7c-2.2 0-3 1-3 3.2 0 2.5.7 4 1.8 4 2.2 0 6.4-2.5 7.9-4.6zM353.33 208.2l-3.2.5c-.9-.8-4.6-4.1-6.6-4.1-2.3 0-4 4.2-5 6.9v29.7l-1.8 1.8h-16.4l-1.8-1.8v-34.1c-.9-4.4-2.4-9.9-3.3-12.8l1.8-2.7 14.7-2.9 2.9 1.8a20.6 20.6 0 0 1 1.7 7.8l-.1 1.5c1.6-3.7 5.2-10.8 13-10.8 2.9 0 8.3 1.6 9.6 2l1.4 2.9zM405.93 215.9l-2.3 2.3H379v.4c0 7 1.7 11.2 6.5 11.2 3.5 0 13.2-1.5 16.3-2.6l2.7 1.9v10.4l-2.3 2.3a73.62 73.62 0 0 1-18.9 2.7c-13.6 0-23.9-7.3-23.9-25.8 0-16.8 5.6-29.5 24.9-29.5 13 0 21.9 7.2 21.9 20.5zm-16.4-8.9c0-3-1.4-5.1-4.7-5.1s-5.2 2.5-5.6 6h10.3zM229.19 346h-15.9l-2.3-2.3v-27.6l1.8-10.4-8.2 24.7-2.5 2.3h-18.31l-2.4-2.3-7.2-24.7 1.8 10.4v27.6l-2.3 2.3h-15.9l-2.3-2.3v-65.4l2.3-2.3h19.8l2.5 2.3 10.6 27.4 2.6 10.8 2.6-10.9 11-27.3 2.5-2.3h19.8l2.3 2.3v65.4zM287.78 318.9l-2.3 2.3h-24.6v.4c0 7 1.7 11.2 6.5 11.2 3.5 0 13.2-1.5 16.3-2.6l2.7 1.9v10.4l-2.3 2.3a73.62 73.62 0 0 1-18.9 2.7c-13.6 0-23.9-7.3-23.9-25.8 0-16.8 5.6-29.5 24.9-29.5 13 0 21.9 7.2 21.9 20.5zm-16.4-8.9c0-3-1.4-5.1-4.7-5.1s-5.2 2.5-5.6 6h10.3z"/><path class="cls-3" d="M35 107.93l4.47-1.07c.8-.19 1.6-.39 2.41-.57l2.46-.51A226.64 226.64 0 0 1 87.69 101c7.78-.11 15.77.22 23.91.89 2 .14 4.07.36 6.12.57 1 .12 2 .22 3.08.35l3.08.41c1 .14 2.06.26 3.09.41l3.1.47c1 .17 2.08.31 3.11.49l3.11.54c8.31 1.42 16.65 3.28 25 5.39 2.09.52 4.16 1.09 6.25 1.63s4.16 1.15 6.25 1.73l6.23 1.83 6.22 1.91c16.56 5.21 33 11.19 49.19 17s32.33 11.44 48.34 15.73l1.5.41 1.5.38 3 .76c2 .48 4 1 6 1.4s4 .89 6 1.25l3 .58 3 .5c2 .36 4 .61 5.92.89 1 .16 2 .25 2.95.37l2.94.33 2.94.25c1 .09 2 .18 2.92.23l2.91.18h2.82c.94 0 1.84.07 2.82.08h5.92l2.95-.11 5.87-.21 5.81-.33 2.88-.17c1 0 1.91-.15 2.86-.22l5.66-.47c.94-.07 1.88-.17 2.8-.28l2.78-.31c1.85-.21 3.7-.35 5.51-.6 3.63-.5 7.24-.91 10.74-1.51 1.76-.28 3.51-.54 5.24-.84L398 152l2.54-.46 2.49-.52 4.94-1 4.8-1.13 2.37-.57 2.33-.6c2.92-.72 5.75-1.5 8.51-2.31v10.35l-.31.12c-1.52.57-3.08 1.1-4.64 1.67a284.86 284.86 0 0 1-41.68 11c-.94.2-1.89.36-2.84.52l-2.88.49-2.89.48c-1 .16-1.94.32-2.92.45l-5.9.82c-1 .12-2 .29-3 .39l-3 .33-6.06.68c-2 .18-4.08.33-6.14.49l-3.09.25-.78.06H339l-1.52.07-3.05.15c-1.06 0-2.22 0-3.33.06h-3.34l-3.28-.06c-1.1 0-2.19-.06-3.28-.12l-3.3-.17-3.28-.27c-1.1-.1-2.2-.17-3.3-.31-2.18-.24-4.39-.46-6.57-.78l-3.29-.46-3.27-.53c-2.2-.33-4.36-.77-6.54-1.17-1.1-.19-2.17-.44-3.26-.66s-2.17-.45-3.25-.69l-3.23-.75-1.62-.38-1.61-.4c-17.2-4.25-33.93-9.93-50.33-15.78s-32.49-11.91-48.43-17.26l-6-2-5.95-1.9c-2-.61-4-1.24-5.93-1.83s-3.94-1.2-5.91-1.74c-7.88-2.26-15.71-4.22-23.46-5.94a277.82 277.82 0 0 0-45.25-6.18c-7.27-.4-14.36-.35-21.22-.1l-2.56.09c-.85 0-1.7.1-2.54.15-1.68.12-3.36.19-5 .34l-4.91.46c-.82.06-1.62.17-2.42.27l-2.39.28-2.38.27c-.78.1-1.56.22-2.33.33l-4.6.67-2 .36z"/><path class="cls-3" d="M139.8 74h41.41v43H139.8z"/><path class="cls-4" d="M150.48 83h5.86v10.54h-5.86zM157.57 83h5.86v10.54h-5.86zM164.67 83h5.86v10.54h-5.86zM150.48 95.46h5.86V106h-5.86zM157.57 95.46h5.86V106h-5.86zM164.67 95.46h5.86V106h-5.86z"/><path class="cls-5" d="M160.5 51l-30.95 27h61.91L160.5 51l-30.95 27h61.91L160.5 51z"/><path class="cls-3" d="M223.45 64.32h1.87v69.38h-1.87z"/><path class="cls-3" d="M240.5 70.93h-16.01v-6.61h16.01l2.5 3.31-2.5 3.3zM208.38 81.34h16.01v-6.61h-16.01l-2.5 3.31 2.5 3.3zM208.38 93.01h16.01V86.4h-16.01l-2.5 3.31 2.5 3.3zM329.1 81.46V74h-7.46v7.46h-18.05V158H335V81.46zm-13.35 55.74h-4.31v-6.28h4.31zm0-9.82h-4.31v-6.67h4.31zm0-10.59h-4.31v-5.89h4.31zm0-9.82h-4.31v-6.28h4.31zm0-10.2h-4.31v-6.28h4.31zm11.39 40.43h-4.71v-6.28h4.71zm0-9.82h-4.71v-6.67h4.71zm0-10.59h-4.71v-5.89h4.71zm0-9.82h-4.71v-6.28h4.71zm0-10.2h-4.71v-6.28h4.71z"/><path class="cls-2" d="M311.44 90.49h4.32v6.28h-4.32zM322.43 90.49h4.71v6.28h-4.71zM311.44 100.69h4.32v6.28h-4.32zM322.43 100.69h4.71v6.28h-4.71zM311.44 110.9h4.32v5.89h-4.32zM322.43 110.9h4.71v5.89h-4.71zM311.44 120.71h4.32v6.67h-4.32zM322.43 120.71h4.71v6.67h-4.71zM311.44 130.92h4.32v6.28h-4.32zM322.43 130.92h4.71v6.28h-4.71z"/><path class="cls-3" d="M390.31 111.66l-.06-.1a10.49 10.49 0 0 0-1.17-1.68 10.43 10.43 0 0 0-2.52-10.5l-2.14-1.68a13 13 0 0 0-1.24-.62 8.39 8.39 0 0 0-.93-2.71 8.23 8.23 0 0 0-3-3.05 8.45 8.45 0 0 0-4.15-1.21l-2.13.23a8.26 8.26 0 0 0-3.82 2.14 8 8 0 0 0-1.76 2.57 9.3 9.3 0 0 0-1.05-.09l-2.36.26a9.11 9.11 0 0 0-7 8.68 8.64 8.64 0 0 0 .25 2.27c-.17.08-.34.16-.51.26l-1.72 1.28a8 8 0 0 0-2.08 3.51 5.9 5.9 0 0 0-.31 2.16c.07.69.15 1.38.22 2.07a8 8 0 0 0 7.46 6.1 9.63 9.63 0 0 0 2.72 6.3l1.95 1.52a9.48 9.48 0 0 0 4.64 1.32l2.42-.26c.16-.05.44-.1.44-.14l-.29-5.39-6.18-7.68 6.65 4.4.47-12.65 1.71 12.55 6.1-5.22-5.43 8.42.22 3.87c0-.18.51-.41.74-.63a8.58 8.58 0 0 0 .85-1 10.73 10.73 0 0 0 14.31-9.89 10.71 10.71 0 0 0-1.3-5.41z"/><path class="cls-2" d="M380.98 116.3l-6.11 5.22-1.7-12.55-.45 12.65-6.67-4.4 6.18 7.68.29 5.39 1.41 25.69 3.32-.19-1.48-27.2-.22-3.87 5.43-8.42z"/><path class="cls-6" d="M76.95 76.46h1.96v9.82h-1.96zM76.95 87.76h1.96v14.25h-1.96zM105.93 76.46h1.96v9.82h-1.96zM105.93 87.76h1.96v14.25h-1.96z"/><path class="cls-3" d="M74 74h37.33v3.44H74zM74 78.42h37.33v3.44H74zM74 85.3h37.33v4.42H74z"/><path class="cls-7" d="M75.77 80.36a.38.38 0 1 1-.38-.37.38.38 0 0 1 .38.37zM75.77 75.32a.38.38 0 1 1-.38-.38.38.38 0 0 1 .38.38zM110.62 80.36a.38.38 0 1 1-.38-.37.38.38 0 0 1 .38.37zM110.62 75.32a.38.38 0 1 1-.38-.38.38.38 0 0 1 .38.38z"/><circle class="cls-8" cx="277.55" cy="46.87" r="12.55" transform="rotate(-82.5 277.269 47.418)"/><path class="cls-8" d="M276.55 25.42h2v5.26h-2z"/><path class="cls-8" transform="rotate(-30.01 268.101 30.575)" d="M267.14 27.94h2v5.26h-2z"/><path class="cls-8" transform="rotate(-60 261.249 37.464)" d="M260.25 34.83h2v5.26h-2z"/><path class="cls-8" d="M256.1 45.87h5.26v2h-5.26z"/><path class="cls-8" transform="rotate(-30 261.259 56.284)" d="M258.63 55.28h5.26v2h-5.26z"/><path class="cls-8" transform="rotate(-59.99 268.161 63.157)" d="M265.51 62.16h5.26v2h-5.26z"/><path class="cls-8" d="M276.55 63.06h2v5.26h-2z"/><path class="cls-8" transform="rotate(-30 286.917 63.16)" d="M285.96 60.53h2v5.26h-2z"/><path class="cls-8" transform="rotate(-59.98 293.85 56.275)" d="M292.85 53.65h2v5.26h-2z"/><path class="cls-8" d="M293.74 45.87H299v2h-5.26z"/><path class="cls-8" transform="rotate(-30 293.82 37.469)" d="M291.22 36.46h5.26v2h-5.26z"/><path class="cls-8" transform="rotate(-59.99 286.976 30.562)" d="M284.33 29.57h5.26v2h-5.26z"/><path class="cls-3" d="M245 124.28l7.91-13.77a1.89 1.89 0 0 1 1.72-.92l15.71.55a1.88 1.88 0 0 1 1.64 1l6.89 13.71a2.29 2.29 0 0 1-.9 3 2.7 2.7 0 0 1-3.77-1l-4.66-9.11-1.35 9.07L270 146a3.17 3.17 0 0 1-3.41 3.32 3.23 3.23 0 0 1-3.19-2.81l-1.5-15.34-2.49 15.2A3.24 3.24 0 0 1 256 149a3.16 3.16 0 0 1-3.17-3.53l3-19-.79-9.13-5.47 9.21a2.66 2.66 0 0 1-3.4 1 2.31 2.31 0 0 1-1.17-3.27z"/><ellipse class="cls-3" cx="262.75" cy="101.17" rx="6.41" ry="6.91" transform="rotate(-88.25 262.74 101.173)"/></svg>