<svg width="127" height="168" viewBox="0 0 127 168" fill="none" xmlns="http://www.w3.org/2000/svg">
<rect x="0.5" y="0.5" width="126" height="167" fill="white" stroke="black"/>
<rect x="14.5" y="12.5" width="99" height="51" fill="white" stroke="black"/>
<path d="M23.6938 106.814L25.3638 103.602H26.3218L24.1157 107.614V110H23.272V107.614L21.0659 103.602H22.0327L23.6938 106.814ZM32.688 107.007C32.688 107.634 32.5825 108.182 32.3716 108.651C32.1606 109.117 31.8618 109.473 31.4751 109.719C31.0884 109.965 30.6372 110.088 30.1216 110.088C29.6177 110.088 29.1709 109.965 28.7812 109.719C28.3916 109.47 28.0884 109.117 27.8716 108.66C27.6577 108.2 27.5479 107.668 27.542 107.064V106.603C27.542 105.988 27.6489 105.444 27.8628 104.973C28.0767 104.501 28.3784 104.141 28.7681 103.892C29.1606 103.64 29.6089 103.514 30.1128 103.514C30.6255 103.514 31.0767 103.638 31.4663 103.887C31.8589 104.133 32.1606 104.492 32.3716 104.964C32.5825 105.433 32.688 105.979 32.688 106.603V107.007ZM31.8486 106.594C31.8486 105.835 31.6963 105.254 31.3916 104.85C31.0869 104.442 30.6606 104.239 30.1128 104.239C29.5796 104.239 29.1592 104.442 28.8516 104.85C28.5469 105.254 28.3901 105.816 28.3813 106.537V107.007C28.3813 107.743 28.5352 108.321 28.8428 108.743C29.1533 109.162 29.5796 109.372 30.1216 109.372C30.6665 109.372 31.0884 109.174 31.3872 108.778C31.686 108.38 31.8398 107.81 31.8486 107.069V106.594ZM39.208 103.602V107.952C39.2051 108.556 39.0146 109.049 38.6367 109.433C38.2617 109.817 37.752 110.032 37.1074 110.079L36.8833 110.088C36.1831 110.088 35.625 109.899 35.209 109.521C34.793 109.143 34.582 108.623 34.5762 107.961V103.602H35.4111V107.935C35.4111 108.397 35.5386 108.758 35.7935 109.016C36.0483 109.271 36.4116 109.398 36.8833 109.398C37.3608 109.398 37.7256 109.271 37.9775 109.016C38.2324 108.761 38.3599 108.402 38.3599 107.939V103.602H39.208ZM43.6362 107.412H42.1333V110H41.2852V103.602H43.4033C44.124 103.602 44.6777 103.766 45.0645 104.094C45.4541 104.422 45.6489 104.899 45.6489 105.526C45.6489 105.925 45.5405 106.272 45.3237 106.568C45.1099 106.864 44.811 107.085 44.4272 107.231L45.9302 109.947V110H45.0249L43.6362 107.412ZM42.1333 106.722H43.4297C43.8486 106.722 44.1812 106.613 44.4272 106.396C44.6763 106.18 44.8008 105.89 44.8008 105.526C44.8008 105.131 44.6821 104.828 44.4448 104.617C44.2104 104.406 43.8706 104.299 43.4253 104.296H42.1333V106.722ZM54.813 104.296H52.7563V110H51.917V104.296H49.8647V103.602H54.813V104.296ZM60.1289 107.042H57.356V109.31H60.5771V110H56.5122V103.602H60.5332V104.296H57.356V106.353H60.1289V107.042ZM64.4648 106.054L65.9985 103.602H66.9917L64.9702 106.774L67.04 110H66.0381L64.4648 107.504L62.8828 110H61.8853L63.9595 106.774L61.9336 103.602H62.9224L64.4648 106.054ZM73.1909 104.296H71.1343V110H70.2949V104.296H68.2427V103.602H73.1909V104.296ZM82.6143 110H81.7661V107.042H78.5405V110H77.6968V103.602H78.5405V106.353H81.7661V103.602H82.6143V110ZM88.4795 107.042H85.7065V109.31H88.9277V110H84.8628V103.602H88.8838V104.296H85.7065V106.353H88.4795V107.042ZM93.0747 107.412H91.5718V110H90.7236V103.602H92.8418C93.5625 103.602 94.1162 103.766 94.5029 104.094C94.8926 104.422 95.0874 104.899 95.0874 105.526C95.0874 105.925 94.979 106.272 94.7622 106.568C94.5483 106.864 94.2495 107.085 93.8657 107.231L95.3687 109.947V110H94.4634L93.0747 107.412ZM91.5718 106.722H92.8682C93.2871 106.722 93.6196 106.613 93.8657 106.396C94.1147 106.18 94.2393 105.89 94.2393 105.526C94.2393 105.131 94.1206 104.828 93.8833 104.617C93.6489 104.406 93.3091 104.299 92.8638 104.296H91.5718V106.722ZM100.641 107.042H97.8677V109.31H101.089V110H97.0239V103.602H101.045V104.296H97.8677V106.353H100.641V107.042ZM102.779 109.574C102.779 109.433 102.82 109.316 102.902 109.222C102.987 109.128 103.113 109.082 103.28 109.082C103.447 109.082 103.573 109.128 103.658 109.222C103.746 109.316 103.79 109.433 103.79 109.574C103.79 109.708 103.746 109.821 103.658 109.912C103.573 110.003 103.447 110.048 103.28 110.048C103.113 110.048 102.987 110.003 102.902 109.912C102.82 109.821 102.779 109.708 102.779 109.574ZM105.902 109.574C105.902 109.433 105.943 109.316 106.025 109.222C106.11 109.128 106.236 109.082 106.403 109.082C106.57 109.082 106.696 109.128 106.781 109.222C106.869 109.316 106.913 109.433 106.913 109.574C106.913 109.708 106.869 109.821 106.781 109.912C106.696 110.003 106.57 110.048 106.403 110.048C106.236 110.048 106.11 110.003 106.025 109.912C105.943 109.821 105.902 109.708 105.902 109.574ZM109.025 109.574C109.025 109.433 109.066 109.316 109.148 109.222C109.233 109.128 109.359 109.082 109.526 109.082C109.693 109.082 109.819 109.128 109.904 109.222C109.992 109.316 110.036 109.433 110.036 109.574C110.036 109.708 109.992 109.821 109.904 109.912C109.819 110.003 109.693 110.048 109.526 110.048C109.359 110.048 109.233 110.003 109.148 109.912C109.066 109.821 109.025 109.708 109.025 109.574Z" fill="black"/>
</svg>
