<svg width="127" height="168" viewBox="0 0 127 168" fill="none" xmlns="http://www.w3.org/2000/svg">
<rect x="0.5" y="0.5" width="126" height="167" fill="white" stroke="black"/>
<rect x="14.5" y="12.5" width="98" height="43" fill="white" stroke="black"/>
<rect x="14.5" y="98.5" width="98" height="43" fill="white" stroke="black"/>
<path d="M16.6938 77.814L18.3638 74.6016H19.3218L17.1157 78.6138V81H16.272V78.6138L14.0659 74.6016H15.0327L16.6938 77.814ZM25.688 78.0073C25.688 78.6343 25.5825 79.1821 25.3716 79.6509C25.1606 80.1167 24.8618 80.4727 24.4751 80.7188C24.0884 80.9648 23.6372 81.0879 23.1216 81.0879C22.6177 81.0879 22.1709 80.9648 21.7812 80.7188C21.3916 80.4697 21.0884 80.1167 20.8716 79.6597C20.6577 79.1997 20.5479 78.668 20.542 78.0645V77.603C20.542 76.9878 20.6489 76.4443 20.8628 75.9727C21.0767 75.501 21.3784 75.1406 21.7681 74.8916C22.1606 74.6396 22.6089 74.5137 23.1128 74.5137C23.6255 74.5137 24.0767 74.6382 24.4663 74.8872C24.8589 75.1333 25.1606 75.4922 25.3716 75.9639C25.5825 76.4326 25.688 76.979 25.688 77.603V78.0073ZM24.8486 77.5942C24.8486 76.8354 24.6963 76.2539 24.3916 75.8496C24.0869 75.4424 23.6606 75.2388 23.1128 75.2388C22.5796 75.2388 22.1592 75.4424 21.8516 75.8496C21.5469 76.2539 21.3901 76.8164 21.3813 77.5371V78.0073C21.3813 78.7427 21.5352 79.3213 21.8428 79.7432C22.1533 80.1621 22.5796 80.3716 23.1216 80.3716C23.6665 80.3716 24.0884 80.1738 24.3872 79.7783C24.686 79.3799 24.8398 78.8101 24.8486 78.0688V77.5942ZM32.208 74.6016V78.9521C32.2051 79.5557 32.0146 80.0493 31.6367 80.4331C31.2617 80.8169 30.752 81.0322 30.1074 81.0791L29.8833 81.0879C29.1831 81.0879 28.625 80.8989 28.209 80.521C27.793 80.1431 27.582 79.623 27.5762 78.9609V74.6016H28.4111V78.9346C28.4111 79.3975 28.5386 79.7578 28.7935 80.0156C29.0483 80.2705 29.4116 80.3979 29.8833 80.3979C30.3608 80.3979 30.7256 80.2705 30.9775 80.0156C31.2324 79.7607 31.3599 79.4019 31.3599 78.939V74.6016H32.208ZM36.6362 78.4116H35.1333V81H34.2852V74.6016H36.4033C37.124 74.6016 37.6777 74.7656 38.0645 75.0938C38.4541 75.4219 38.6489 75.8994 38.6489 76.5264C38.6489 76.9248 38.5405 77.272 38.3237 77.5679C38.1099 77.8638 37.811 78.085 37.4272 78.2314L38.9302 80.9473V81H38.0249L36.6362 78.4116ZM35.1333 77.7217H36.4297C36.8486 77.7217 37.1812 77.6133 37.4272 77.3965C37.6763 77.1797 37.8008 76.8896 37.8008 76.5264C37.8008 76.1309 37.6821 75.8276 37.4448 75.6167C37.2104 75.4058 36.8706 75.2988 36.4253 75.2959H35.1333V77.7217ZM47.813 75.2959H45.7563V81H44.917V75.2959H42.8647V74.6016H47.813V75.2959ZM53.1289 78.0425H50.356V80.3101H53.5771V81H49.5122V74.6016H53.5332V75.2959H50.356V77.3525H53.1289V78.0425ZM57.4648 77.0537L58.9985 74.6016H59.9917L57.9702 77.7744L60.04 81H59.0381L57.4648 78.5039L55.8828 81H54.8853L56.9595 77.7744L54.9336 74.6016H55.9224L57.4648 77.0537ZM66.1909 75.2959H64.1343V81H63.2949V75.2959H61.2427V74.6016H66.1909V75.2959ZM75.6143 81H74.7661V78.0425H71.5405V81H70.6968V74.6016H71.5405V77.3525H74.7661V74.6016H75.6143V81ZM81.4795 78.0425H78.7065V80.3101H81.9277V81H77.8628V74.6016H81.8838V75.2959H78.7065V77.3525H81.4795V78.0425ZM86.0747 78.4116H84.5718V81H83.7236V74.6016H85.8418C86.5625 74.6016 87.1162 74.7656 87.5029 75.0938C87.8926 75.4219 88.0874 75.8994 88.0874 76.5264C88.0874 76.9248 87.979 77.272 87.7622 77.5679C87.5483 77.8638 87.2495 78.085 86.8657 78.2314L88.3687 80.9473V81H87.4634L86.0747 78.4116ZM84.5718 77.7217H85.8682C86.2871 77.7217 86.6196 77.6133 86.8657 77.3965C87.1147 77.1797 87.2393 76.8896 87.2393 76.5264C87.2393 76.1309 87.1206 75.8276 86.8833 75.6167C86.6489 75.4058 86.3091 75.2988 85.8638 75.2959H84.5718V77.7217ZM93.6406 78.0425H90.8677V80.3101H94.0889V81H90.0239V74.6016H94.0449V75.2959H90.8677V77.3525H93.6406V78.0425ZM95.7793 80.5737C95.7793 80.4331 95.8203 80.3159 95.9023 80.2222C95.9873 80.1284 96.1133 80.0815 96.2803 80.0815C96.4473 80.0815 96.5732 80.1284 96.6582 80.2222C96.7461 80.3159 96.79 80.4331 96.79 80.5737C96.79 80.7085 96.7461 80.8213 96.6582 80.9121C96.5732 81.0029 96.4473 81.0483 96.2803 81.0483C96.1133 81.0483 95.9873 81.0029 95.9023 80.9121C95.8203 80.8213 95.7793 80.7085 95.7793 80.5737ZM98.9023 80.5737C98.9023 80.4331 98.9434 80.3159 99.0254 80.2222C99.1104 80.1284 99.2363 80.0815 99.4033 80.0815C99.5703 80.0815 99.6963 80.1284 99.7812 80.2222C99.8691 80.3159 99.9131 80.4331 99.9131 80.5737C99.9131 80.7085 99.8691 80.8213 99.7812 80.9121C99.6963 81.0029 99.5703 81.0483 99.4033 81.0483C99.2363 81.0483 99.1104 81.0029 99.0254 80.9121C98.9434 80.8213 98.9023 80.7085 98.9023 80.5737ZM102.025 80.5737C102.025 80.4331 102.066 80.3159 102.148 80.2222C102.233 80.1284 102.359 80.0815 102.526 80.0815C102.693 80.0815 102.819 80.1284 102.904 80.2222C102.992 80.3159 103.036 80.4331 103.036 80.5737C103.036 80.7085 102.992 80.8213 102.904 80.9121C102.819 81.0029 102.693 81.0483 102.526 81.0483C102.359 81.0483 102.233 81.0029 102.148 80.9121C102.066 80.8213 102.025 80.7085 102.025 80.5737Z" fill="black"/>
<path d="M16.6938 153.814L18.3638 150.602H19.3218L17.1157 154.614V157H16.272V154.614L14.0659 150.602H15.0327L16.6938 153.814ZM25.688 154.007C25.688 154.634 25.5825 155.182 25.3716 155.651C25.1606 156.117 24.8618 156.473 24.4751 156.719C24.0884 156.965 23.6372 157.088 23.1216 157.088C22.6177 157.088 22.1709 156.965 21.7812 156.719C21.3916 156.47 21.0884 156.117 20.8716 155.66C20.6577 155.2 20.5479 154.668 20.542 154.064V153.603C20.542 152.988 20.6489 152.444 20.8628 151.973C21.0767 151.501 21.3784 151.141 21.7681 150.892C22.1606 150.64 22.6089 150.514 23.1128 150.514C23.6255 150.514 24.0767 150.638 24.4663 150.887C24.8589 151.133 25.1606 151.492 25.3716 151.964C25.5825 152.433 25.688 152.979 25.688 153.603V154.007ZM24.8486 153.594C24.8486 152.835 24.6963 152.254 24.3916 151.85C24.0869 151.442 23.6606 151.239 23.1128 151.239C22.5796 151.239 22.1592 151.442 21.8516 151.85C21.5469 152.254 21.3901 152.816 21.3813 153.537V154.007C21.3813 154.743 21.5352 155.321 21.8428 155.743C22.1533 156.162 22.5796 156.372 23.1216 156.372C23.6665 156.372 24.0884 156.174 24.3872 155.778C24.686 155.38 24.8398 154.81 24.8486 154.069V153.594ZM32.208 150.602V154.952C32.2051 155.556 32.0146 156.049 31.6367 156.433C31.2617 156.817 30.752 157.032 30.1074 157.079L29.8833 157.088C29.1831 157.088 28.625 156.899 28.209 156.521C27.793 156.143 27.582 155.623 27.5762 154.961V150.602H28.4111V154.935C28.4111 155.397 28.5386 155.758 28.7935 156.016C29.0483 156.271 29.4116 156.398 29.8833 156.398C30.3608 156.398 30.7256 156.271 30.9775 156.016C31.2324 155.761 31.3599 155.402 31.3599 154.939V150.602H32.208ZM36.6362 154.412H35.1333V157H34.2852V150.602H36.4033C37.124 150.602 37.6777 150.766 38.0645 151.094C38.4541 151.422 38.6489 151.899 38.6489 152.526C38.6489 152.925 38.5405 153.272 38.3237 153.568C38.1099 153.864 37.811 154.085 37.4272 154.231L38.9302 156.947V157H38.0249L36.6362 154.412ZM35.1333 153.722H36.4297C36.8486 153.722 37.1812 153.613 37.4272 153.396C37.6763 153.18 37.8008 152.89 37.8008 152.526C37.8008 152.131 37.6821 151.828 37.4448 151.617C37.2104 151.406 36.8706 151.299 36.4253 151.296H35.1333V153.722ZM47.813 151.296H45.7563V157H44.917V151.296H42.8647V150.602H47.813V151.296ZM53.1289 154.042H50.356V156.31H53.5771V157H49.5122V150.602H53.5332V151.296H50.356V153.353H53.1289V154.042ZM57.4648 153.054L58.9985 150.602H59.9917L57.9702 153.774L60.04 157H59.0381L57.4648 154.504L55.8828 157H54.8853L56.9595 153.774L54.9336 150.602H55.9224L57.4648 153.054ZM66.1909 151.296H64.1343V157H63.2949V151.296H61.2427V150.602H66.1909V151.296ZM75.6143 157H74.7661V154.042H71.5405V157H70.6968V150.602H71.5405V153.353H74.7661V150.602H75.6143V157ZM81.4795 154.042H78.7065V156.31H81.9277V157H77.8628V150.602H81.8838V151.296H78.7065V153.353H81.4795V154.042ZM86.0747 154.412H84.5718V157H83.7236V150.602H85.8418C86.5625 150.602 87.1162 150.766 87.5029 151.094C87.8926 151.422 88.0874 151.899 88.0874 152.526C88.0874 152.925 87.979 153.272 87.7622 153.568C87.5483 153.864 87.2495 154.085 86.8657 154.231L88.3687 156.947V157H87.4634L86.0747 154.412ZM84.5718 153.722H85.8682C86.2871 153.722 86.6196 153.613 86.8657 153.396C87.1147 153.18 87.2393 152.89 87.2393 152.526C87.2393 152.131 87.1206 151.828 86.8833 151.617C86.6489 151.406 86.3091 151.299 85.8638 151.296H84.5718V153.722ZM93.6406 154.042H90.8677V156.31H94.0889V157H90.0239V150.602H94.0449V151.296H90.8677V153.353H93.6406V154.042ZM95.7793 156.574C95.7793 156.433 95.8203 156.316 95.9023 156.222C95.9873 156.128 96.1133 156.082 96.2803 156.082C96.4473 156.082 96.5732 156.128 96.6582 156.222C96.7461 156.316 96.79 156.433 96.79 156.574C96.79 156.708 96.7461 156.821 96.6582 156.912C96.5732 157.003 96.4473 157.048 96.2803 157.048C96.1133 157.048 95.9873 157.003 95.9023 156.912C95.8203 156.821 95.7793 156.708 95.7793 156.574ZM98.9023 156.574C98.9023 156.433 98.9434 156.316 99.0254 156.222C99.1104 156.128 99.2363 156.082 99.4033 156.082C99.5703 156.082 99.6963 156.128 99.7812 156.222C99.8691 156.316 99.9131 156.433 99.9131 156.574C99.9131 156.708 99.8691 156.821 99.7812 156.912C99.6963 157.003 99.5703 157.048 99.4033 157.048C99.2363 157.048 99.1104 157.003 99.0254 156.912C98.9434 156.821 98.9023 156.708 98.9023 156.574ZM102.025 156.574C102.025 156.433 102.066 156.316 102.148 156.222C102.233 156.128 102.359 156.082 102.526 156.082C102.693 156.082 102.819 156.128 102.904 156.222C102.992 156.316 103.036 156.433 103.036 156.574C103.036 156.708 102.992 156.821 102.904 156.912C102.819 157.003 102.693 157.048 102.526 157.048C102.359 157.048 102.233 157.003 102.148 156.912C102.066 156.821 102.025 156.708 102.025 156.574Z" fill="black"/>
</svg>
