<svg width="129" height="168" viewBox="0 0 129 168" fill="none" xmlns="http://www.w3.org/2000/svg">
<rect x="0.5" y="0.5" width="126" height="167" fill="white" stroke="black"/>
<rect x="28.5" y="18.5" width="71" height="86" fill="white" stroke="black"/>
<path d="M25.6938 127.814L27.3638 124.602H28.3218L26.1157 128.614V131H25.272V128.614L23.0659 124.602H24.0327L25.6938 127.814ZM34.688 128.007C34.688 128.634 34.5825 129.182 34.3716 129.651C34.1606 130.117 33.8618 130.473 33.4751 130.719C33.0884 130.965 32.6372 131.088 32.1216 131.088C31.6177 131.088 31.1709 130.965 30.7812 130.719C30.3916 130.47 30.0884 130.117 29.8716 129.66C29.6577 129.2 29.5479 128.668 29.542 128.064V127.603C29.542 126.988 29.6489 126.444 29.8628 125.973C30.0767 125.501 30.3784 125.141 30.7681 124.892C31.1606 124.64 31.6089 124.514 32.1128 124.514C32.6255 124.514 33.0767 124.638 33.4663 124.887C33.8589 125.133 34.1606 125.492 34.3716 125.964C34.5825 126.433 34.688 126.979 34.688 127.603V128.007ZM33.8486 127.594C33.8486 126.835 33.6963 126.254 33.3916 125.85C33.0869 125.442 32.6606 125.239 32.1128 125.239C31.5796 125.239 31.1592 125.442 30.8516 125.85C30.5469 126.254 30.3901 126.816 30.3813 127.537V128.007C30.3813 128.743 30.5352 129.321 30.8428 129.743C31.1533 130.162 31.5796 130.372 32.1216 130.372C32.6665 130.372 33.0884 130.174 33.3872 129.778C33.686 129.38 33.8398 128.81 33.8486 128.069V127.594ZM41.208 124.602V128.952C41.2051 129.556 41.0146 130.049 40.6367 130.433C40.2617 130.817 39.752 131.032 39.1074 131.079L38.8833 131.088C38.1831 131.088 37.625 130.899 37.209 130.521C36.793 130.143 36.582 129.623 36.5762 128.961V124.602H37.4111V128.935C37.4111 129.397 37.5386 129.758 37.7935 130.016C38.0483 130.271 38.4116 130.398 38.8833 130.398C39.3608 130.398 39.7256 130.271 39.9775 130.016C40.2324 129.761 40.3599 129.402 40.3599 128.939V124.602H41.208ZM45.6362 128.412H44.1333V131H43.2852V124.602H45.4033C46.124 124.602 46.6777 124.766 47.0645 125.094C47.4541 125.422 47.6489 125.899 47.6489 126.526C47.6489 126.925 47.5405 127.272 47.3237 127.568C47.1099 127.864 46.811 128.085 46.4272 128.231L47.9302 130.947V131H47.0249L45.6362 128.412ZM44.1333 127.722H45.4297C45.8486 127.722 46.1812 127.613 46.4272 127.396C46.6763 127.18 46.8008 126.89 46.8008 126.526C46.8008 126.131 46.6821 125.828 46.4448 125.617C46.2104 125.406 45.8706 125.299 45.4253 125.296H44.1333V127.722ZM56.813 125.296H54.7563V131H53.917V125.296H51.8647V124.602H56.813V125.296ZM62.1289 128.042H59.356V130.31H62.5771V131H58.5122V124.602H62.5332V125.296H59.356V127.353H62.1289V128.042ZM66.4648 127.054L67.9985 124.602H68.9917L66.9702 127.774L69.04 131H68.0381L66.4648 128.504L64.8828 131H63.8853L65.9595 127.774L63.9336 124.602H64.9224L66.4648 127.054ZM75.1909 125.296H73.1343V131H72.2949V125.296H70.2427V124.602H75.1909V125.296ZM84.6143 131H83.7661V128.042H80.5405V131H79.6968V124.602H80.5405V127.353H83.7661V124.602H84.6143V131ZM90.4795 128.042H87.7065V130.31H90.9277V131H86.8628V124.602H90.8838V125.296H87.7065V127.353H90.4795V128.042ZM95.0747 128.412H93.5718V131H92.7236V124.602H94.8418C95.5625 124.602 96.1162 124.766 96.5029 125.094C96.8926 125.422 97.0874 125.899 97.0874 126.526C97.0874 126.925 96.979 127.272 96.7622 127.568C96.5483 127.864 96.2495 128.085 95.8657 128.231L97.3687 130.947V131H96.4634L95.0747 128.412ZM93.5718 127.722H94.8682C95.2871 127.722 95.6196 127.613 95.8657 127.396C96.1147 127.18 96.2393 126.89 96.2393 126.526C96.2393 126.131 96.1206 125.828 95.8833 125.617C95.6489 125.406 95.3091 125.299 94.8638 125.296H93.5718V127.722ZM102.641 128.042H99.8677V130.31H103.089V131H99.0239V124.602H103.045V125.296H99.8677V127.353H102.641V128.042ZM104.779 130.574C104.779 130.433 104.82 130.316 104.902 130.222C104.987 130.128 105.113 130.082 105.28 130.082C105.447 130.082 105.573 130.128 105.658 130.222C105.746 130.316 105.79 130.433 105.79 130.574C105.79 130.708 105.746 130.821 105.658 130.912C105.573 131.003 105.447 131.048 105.28 131.048C105.113 131.048 104.987 131.003 104.902 130.912C104.82 130.821 104.779 130.708 104.779 130.574ZM107.902 130.574C107.902 130.433 107.943 130.316 108.025 130.222C108.11 130.128 108.236 130.082 108.403 130.082C108.57 130.082 108.696 130.128 108.781 130.222C108.869 130.316 108.913 130.433 108.913 130.574C108.913 130.708 108.869 130.821 108.781 130.912C108.696 131.003 108.57 131.048 108.403 131.048C108.236 131.048 108.11 131.003 108.025 130.912C107.943 130.821 107.902 130.708 107.902 130.574ZM111.025 130.574C111.025 130.433 111.066 130.316 111.148 130.222C111.233 130.128 111.359 130.082 111.526 130.082C111.693 130.082 111.819 130.128 111.904 130.222C111.992 130.316 112.036 130.433 112.036 130.574C112.036 130.708 111.992 130.821 111.904 130.912C111.819 131.003 111.693 131.048 111.526 131.048C111.359 131.048 111.233 131.003 111.148 130.912C111.066 130.821 111.025 130.708 111.025 130.574Z" fill="black"/>
</svg>
