<svg width="151" height="168" viewBox="0 0 151 168" fill="none" xmlns="http://www.w3.org/2000/svg">
<rect x="0.5" y="0.5" width="126" height="167" fill="white" stroke="black"/>
<rect x="11.5" y="26.5" width="49" height="43" fill="white" stroke="black"/>
<rect x="11.5" y="95.5" width="49" height="43" fill="white" stroke="black"/>
<path d="M71.3945 39.168L72.8789 36.3125H73.7305L71.7695 39.8789V42H71.0195V39.8789L69.0586 36.3125H69.918L71.3945 39.168ZM79.4727 39.3398C79.4727 39.8971 79.3789 40.3841 79.1914 40.8008C79.0039 41.2148 78.7383 41.5312 78.3945 41.75C78.0508 41.9688 77.6497 42.0781 77.1914 42.0781C76.7435 42.0781 76.3464 41.9688 76 41.75C75.6536 41.5286 75.3841 41.2148 75.1914 40.8086C75.0013 40.3997 74.9036 39.9271 74.8984 39.3906V38.9805C74.8984 38.4336 74.9935 37.9505 75.1836 37.5312C75.3737 37.112 75.6419 36.7917 75.9883 36.5703C76.3372 36.3464 76.7357 36.2344 77.1836 36.2344C77.6393 36.2344 78.0404 36.3451 78.3867 36.5664C78.7357 36.7852 79.0039 37.1042 79.1914 37.5234C79.3789 37.9401 79.4727 38.4258 79.4727 38.9805V39.3398ZM78.7266 38.9727C78.7266 38.2982 78.5911 37.7812 78.3203 37.4219C78.0495 37.0599 77.6706 36.8789 77.1836 36.8789C76.7096 36.8789 76.3359 37.0599 76.0625 37.4219C75.7917 37.7812 75.6523 38.2812 75.6445 38.9219V39.3398C75.6445 39.9935 75.7812 40.5078 76.0547 40.8828C76.3307 41.2552 76.7096 41.4414 77.1914 41.4414C77.6758 41.4414 78.0508 41.2656 78.3164 40.9141C78.582 40.5599 78.7188 40.0534 78.7266 39.3945V38.9727ZM85.3516 36.3125V40.1797C85.349 40.7161 85.1797 41.1549 84.8438 41.4961C84.5104 41.8372 84.0573 42.0286 83.4844 42.0703L83.2852 42.0781C82.6628 42.0781 82.1667 41.9102 81.7969 41.5742C81.4271 41.2383 81.2396 40.776 81.2344 40.1875V36.3125H81.9766V40.1641C81.9766 40.5755 82.0898 40.8958 82.3164 41.125C82.543 41.3516 82.8659 41.4648 83.2852 41.4648C83.7096 41.4648 84.0339 41.3516 84.2578 41.125C84.4844 40.8984 84.5977 40.5794 84.5977 40.168V36.3125H85.3516ZM89.3711 39.6992H88.0352V42H87.2812V36.3125H89.1641C89.8047 36.3125 90.2969 36.4583 90.6406 36.75C90.987 37.0417 91.1602 37.4661 91.1602 38.0234C91.1602 38.3776 91.0638 38.6862 90.8711 38.9492C90.681 39.2122 90.4154 39.4089 90.0742 39.5391L91.4102 41.9531V42H90.6055L89.3711 39.6992ZM88.0352 39.0859H89.1875C89.5599 39.0859 89.8555 38.9896 90.0742 38.7969C90.2956 38.6042 90.4062 38.3464 90.4062 38.0234C90.4062 37.6719 90.3008 37.4023 90.0898 37.2148C89.8815 37.0273 89.5794 36.9323 89.1836 36.9297H88.0352V39.0859ZM99.4727 36.9297H97.6445V42H96.8984V36.9297H95.0742V36.3125H99.4727V36.9297ZM104.281 39.3711H101.816V41.3867H104.68V42H101.066V36.3125H104.641V36.9297H101.816V38.7578H104.281V39.3711ZM108.219 38.4922L109.582 36.3125H110.465L108.668 39.1328L110.508 42H109.617L108.219 39.7812L106.812 42H105.926L107.77 39.1328L105.969 36.3125H106.848L108.219 38.4922ZM116.059 36.9297H114.23V42H113.484V36.9297H111.66V36.3125H116.059V36.9297ZM74.0312 51H73.2773V48.3711H70.4102V51H69.6602V45.3125H70.4102V47.7578H73.2773V45.3125H74.0312V51ZM79.3281 48.3711H76.8633V50.3867H79.7266V51H76.1133V45.3125H79.6875V45.9297H76.8633V47.7578H79.3281V48.3711ZM83.4961 48.6992H82.1602V51H81.4062V45.3125H83.2891C83.9297 45.3125 84.4219 45.4583 84.7656 45.75C85.112 46.0417 85.2852 46.4661 85.2852 47.0234C85.2852 47.3776 85.1888 47.6862 84.9961 47.9492C84.806 48.2122 84.5404 48.4089 84.1992 48.5391L85.5352 50.9531V51H84.7305L83.4961 48.6992ZM82.1602 48.0859H83.3125C83.6849 48.0859 83.9805 47.9896 84.1992 47.7969C84.4206 47.6042 84.5312 47.3464 84.5312 47.0234C84.5312 46.6719 84.4258 46.4023 84.2148 46.2148C84.0065 46.0273 83.7044 45.9323 83.3086 45.9297H82.1602V48.0859ZM90.3047 48.3711H87.8398V50.3867H90.7031V51H87.0898V45.3125H90.6641V45.9297H87.8398V47.7578H90.3047V48.3711ZM92.2891 50.6211C92.2891 50.4961 92.3255 50.3919 92.3984 50.3086C92.474 50.2253 92.5859 50.1836 92.7344 50.1836C92.8828 50.1836 92.9948 50.2253 93.0703 50.3086C93.1484 50.3919 93.1875 50.4961 93.1875 50.6211C93.1875 50.7409 93.1484 50.8411 93.0703 50.9219C92.9948 51.0026 92.8828 51.043 92.7344 51.043C92.5859 51.043 92.474 51.0026 92.3984 50.9219C92.3255 50.8411 92.2891 50.7409 92.2891 50.6211ZM95.1484 50.6211C95.1484 50.4961 95.1849 50.3919 95.2578 50.3086C95.3333 50.2253 95.4453 50.1836 95.5938 50.1836C95.7422 50.1836 95.8542 50.2253 95.9297 50.3086C96.0078 50.3919 96.0469 50.4961 96.0469 50.6211C96.0469 50.7409 96.0078 50.8411 95.9297 50.9219C95.8542 51.0026 95.7422 51.043 95.5938 51.043C95.4453 51.043 95.3333 51.0026 95.2578 50.9219C95.1849 50.8411 95.1484 50.7409 95.1484 50.6211ZM98.0078 50.6211C98.0078 50.4961 98.0443 50.3919 98.1172 50.3086C98.1927 50.2253 98.3047 50.1836 98.4531 50.1836C98.6016 50.1836 98.7135 50.2253 98.7891 50.3086C98.8672 50.3919 98.9062 50.4961 98.9062 50.6211C98.9062 50.7409 98.8672 50.8411 98.7891 50.9219C98.7135 51.0026 98.6016 51.043 98.4531 51.043C98.3047 51.043 98.1927 51.0026 98.1172 50.9219C98.0443 50.8411 98.0078 50.7409 98.0078 50.6211Z" fill="black"/>
<path d="M72.3945 109.168L73.8789 106.312H74.7305L72.7695 109.879V112H72.0195V109.879L70.0586 106.312H70.918L72.3945 109.168ZM80.4727 109.34C80.4727 109.897 80.3789 110.384 80.1914 110.801C80.0039 111.215 79.7383 111.531 79.3945 111.75C79.0508 111.969 78.6497 112.078 78.1914 112.078C77.7435 112.078 77.3464 111.969 77 111.75C76.6536 111.529 76.3841 111.215 76.1914 110.809C76.0013 110.4 75.9036 109.927 75.8984 109.391V108.98C75.8984 108.434 75.9935 107.951 76.1836 107.531C76.3737 107.112 76.6419 106.792 76.9883 106.57C77.3372 106.346 77.7357 106.234 78.1836 106.234C78.6393 106.234 79.0404 106.345 79.3867 106.566C79.7357 106.785 80.0039 107.104 80.1914 107.523C80.3789 107.94 80.4727 108.426 80.4727 108.98V109.34ZM79.7266 108.973C79.7266 108.298 79.5911 107.781 79.3203 107.422C79.0495 107.06 78.6706 106.879 78.1836 106.879C77.7096 106.879 77.3359 107.06 77.0625 107.422C76.7917 107.781 76.6523 108.281 76.6445 108.922V109.34C76.6445 109.993 76.7812 110.508 77.0547 110.883C77.3307 111.255 77.7096 111.441 78.1914 111.441C78.6758 111.441 79.0508 111.266 79.3164 110.914C79.582 110.56 79.7188 110.053 79.7266 109.395V108.973ZM86.3516 106.312V110.18C86.349 110.716 86.1797 111.155 85.8438 111.496C85.5104 111.837 85.0573 112.029 84.4844 112.07L84.2852 112.078C83.6628 112.078 83.1667 111.91 82.7969 111.574C82.4271 111.238 82.2396 110.776 82.2344 110.188V106.312H82.9766V110.164C82.9766 110.576 83.0898 110.896 83.3164 111.125C83.543 111.352 83.8659 111.465 84.2852 111.465C84.7096 111.465 85.0339 111.352 85.2578 111.125C85.4844 110.898 85.5977 110.579 85.5977 110.168V106.312H86.3516ZM90.3711 109.699H89.0352V112H88.2812V106.312H90.1641C90.8047 106.312 91.2969 106.458 91.6406 106.75C91.987 107.042 92.1602 107.466 92.1602 108.023C92.1602 108.378 92.0638 108.686 91.8711 108.949C91.681 109.212 91.4154 109.409 91.0742 109.539L92.4102 111.953V112H91.6055L90.3711 109.699ZM89.0352 109.086H90.1875C90.5599 109.086 90.8555 108.99 91.0742 108.797C91.2956 108.604 91.4062 108.346 91.4062 108.023C91.4062 107.672 91.3008 107.402 91.0898 107.215C90.8815 107.027 90.5794 106.932 90.1836 106.93H89.0352V109.086ZM100.473 106.93H98.6445V112H97.8984V106.93H96.0742V106.312H100.473V106.93ZM105.281 109.371H102.816V111.387H105.68V112H102.066V106.312H105.641V106.93H102.816V108.758H105.281V109.371ZM109.219 108.492L110.582 106.312H111.465L109.668 109.133L111.508 112H110.617L109.219 109.781L107.812 112H106.926L108.77 109.133L106.969 106.312H107.848L109.219 108.492ZM117.059 106.93H115.23V112H114.484V106.93H112.66V106.312H117.059V106.93ZM75.0312 121H74.2773V118.371H71.4102V121H70.6602V115.312H71.4102V117.758H74.2773V115.312H75.0312V121ZM80.3281 118.371H77.8633V120.387H80.7266V121H77.1133V115.312H80.6875V115.93H77.8633V117.758H80.3281V118.371ZM84.4961 118.699H83.1602V121H82.4062V115.312H84.2891C84.9297 115.312 85.4219 115.458 85.7656 115.75C86.112 116.042 86.2852 116.466 86.2852 117.023C86.2852 117.378 86.1888 117.686 85.9961 117.949C85.806 118.212 85.5404 118.409 85.1992 118.539L86.5352 120.953V121H85.7305L84.4961 118.699ZM83.1602 118.086H84.3125C84.6849 118.086 84.9805 117.99 85.1992 117.797C85.4206 117.604 85.5312 117.346 85.5312 117.023C85.5312 116.672 85.4258 116.402 85.2148 116.215C85.0065 116.027 84.7044 115.932 84.3086 115.93H83.1602V118.086ZM91.3047 118.371H88.8398V120.387H91.7031V121H88.0898V115.312H91.6641V115.93H88.8398V117.758H91.3047V118.371ZM93.2891 120.621C93.2891 120.496 93.3255 120.392 93.3984 120.309C93.474 120.225 93.5859 120.184 93.7344 120.184C93.8828 120.184 93.9948 120.225 94.0703 120.309C94.1484 120.392 94.1875 120.496 94.1875 120.621C94.1875 120.741 94.1484 120.841 94.0703 120.922C93.9948 121.003 93.8828 121.043 93.7344 121.043C93.5859 121.043 93.474 121.003 93.3984 120.922C93.3255 120.841 93.2891 120.741 93.2891 120.621ZM96.1484 120.621C96.1484 120.496 96.1849 120.392 96.2578 120.309C96.3333 120.225 96.4453 120.184 96.5938 120.184C96.7422 120.184 96.8542 120.225 96.9297 120.309C97.0078 120.392 97.0469 120.496 97.0469 120.621C97.0469 120.741 97.0078 120.841 96.9297 120.922C96.8542 121.003 96.7422 121.043 96.5938 121.043C96.4453 121.043 96.3333 121.003 96.2578 120.922C96.1849 120.841 96.1484 120.741 96.1484 120.621ZM99.0078 120.621C99.0078 120.496 99.0443 120.392 99.1172 120.309C99.1927 120.225 99.3047 120.184 99.4531 120.184C99.6016 120.184 99.7135 120.225 99.7891 120.309C99.8672 120.392 99.9062 120.496 99.9062 120.621C99.9062 120.741 99.8672 120.841 99.7891 120.922C99.7135 121.003 99.6016 121.043 99.4531 121.043C99.3047 121.043 99.1927 121.003 99.1172 120.922C99.0443 120.841 99.0078 120.741 99.0078 120.621Z" fill="black"/>
</svg>
